<?xml version="1.0" standalone="no"?>
<!DOCTYPE svg PUBLIC "-//W3C//DTD SVG 20010904//EN"
 "http://www.w3.org/TR/2001/REC-SVG-20010904/DTD/svg10.dtd">
<svg version="1.0" xmlns="http://www.w3.org/2000/svg"
 width="700.000000pt" height="700.000000pt" viewBox="0 0 700.000000 700.000000"
 preserveAspectRatio="xMidYMid meet">
<metadata>
Created by potrace 1.14, written by Peter Selinger 2001-2017
</metadata>
<g transform="translate(0.000000,700.000000) scale(0.100000,-0.100000)"
fill="#000000" stroke="none">
<path d="M1916 6113 c-189 -35 -345 -172 -418 -370 -22 -58 -22 -62 -24 -953
-2 -969 -5 -928 52 -965 24 -16 62 -17 420 -17 217 0 395 -3 395 -7 1 -3 2
-645 3 -1427 1 -1349 2 -1422 20 -1448 19 -29 69 -56 95 -51 9 2 21 4 27 4 11
1 128 88 419 311 119 91 219 167 585 445 151 115 277 211 280 215 23 25 164
121 173 117 7 -3 76 -54 154 -113 77 -60 190 -146 250 -191 59 -46 312 -238
560 -427 430 -327 473 -357 516 -361 25 -2 79 35 94 64 8 18 11 585 11 2357 0
1965 -2 2343 -14 2399 -44 208 -226 387 -429 422 -16 3 -721 6 -1565 7 -1192
1 -1550 -2 -1604 -11z m189 -222 c112 -31 210 -135 231 -246 5 -29 10 -1479 5
-1600 -1 -20 -7 -20 -318 -18 -175 0 -322 2 -326 2 -4 1 -6 367 -5 814 l3 812
26 56 c44 93 137 169 226 185 15 3 28 6 29 7 6 5 97 -3 129 -12z m2994 -6 c75
-28 141 -90 177 -167 l29 -63 3 -2223 c2 -1785 0 -2222 -10 -2216 -17 10 -162
117 -168 124 -3 3 -194 149 -425 325 -231 175 -465 353 -520 395 -211 162
-208 160 -245 160 -19 0 -47 -8 -61 -18 -50 -32 -84 -57 -95 -67 -11 -10 -192
-148 -584 -446 -102 -77 -192 -145 -200 -152 -40 -33 -429 -327 -432 -327 -2
0 -3 993 -3 2208 1 1799 -1 2219 -12 2271 -15 70 -41 136 -73 180 -11 16 -20
31 -20 33 0 2 582 3 1293 3 1262 0 1293 -1 1346 -20z"/>
</g>
</svg>
